name analog
datacolumns 19
datarows 37
range 0.176 0.194
endheader
time	ground_force_vx	ground_force_vy	ground_force_vz	ground_force_px	ground_force_py	ground_force_pz	l_ground_force_vx	l_ground_force_vy	l_ground_force_vz	l_ground_force_px	l_ground_force_py	l_ground_force_pz	ground_torque_x	ground_torque_y	ground_torque_z	l_ground_torque_x	l_ground_torque_y	l_ground_torque_z
0.176	-0.0	-0.0	-0.0	2.6968564987182617	25.48455238342285	-374.3428649902344	-2.886880397796631	-26.97217559814453	-357.2369079589844	-0.0	-0.0	-0.0	-0.0	-0.0	-0.0	98018.3671875	-30421.49609375	-1202.249755859375
0.1765	-0.0	-0.0	-0.0	3.012538433074951	25.36789894104004	-373.6643676757813	-2.8321878910064697	-26.598575592041016	-357.2079162597656	-0.0	-0.0	-0.0	-0.0	-0.0	-0.0	97957.2890625	-30445.134765625	-1295.7510986328125
0.177	-0.0	-0.0	-0.0	3.6783275604248047	25.62178039550781	-373.2857666015625	-3.077493667602539	-26.795455932617188	-357.77264404296875	-0.0	-0.0	-0.0	-0.0	-0.0	-0.0	97750.46875	-30391.455078125	-1218.384765625
0.1775	-0.0	-0.0	-0.0	3.211578369140625	24.77825164794922	-375.5946044921875	-2.688549757003784	-26.537315368652344	-358.1224060058594	-0.0	-0.0	-0.0	-0.0	-0.0	-0.0	98112.2578125	-30387.798828125	-1229.4302978515625
0.178	-0.0	-0.0	-0.0	3.50003719329834	24.894086837768555	-374.017578125	-2.770606517791748	-26.93811416625977	-358.14862060546875	-0.0	-0.0	-0.0	-0.0	-0.0	-0.0	98129.3203125	-30441.626953125	-1216.01171875
0.1785	-0.0	-0.0	-0.0	3.471552848815918	24.79913711547852	-373.4242858886719	-3.008898496627808	-26.84255599975586	-359.1957397460937	-0.0	-0.0	-0.0	-0.0	-0.0	-0.0	98231.4921875	-30454.58984375	-1229.658203125
0.179	-0.0	-0.0	-0.0	3.156494379043579	24.683746337890625	-372.2208251953125	-3.0427722930908203	-27.02643585205078	-358.3925170898437	-0.0	-0.0	-0.0	-0.0	-0.0	-0.0	98337.9375	-30492.572265625	-1227.728515625
0.1795	-0.0	-0.0	-0.0	3.198525905609131	24.71811294555664	-372.0650634765625	-3.1332483291625977	-27.08094024658203	-359.1952209472656	-0.0	-0.0	-0.0	-0.0	-0.0	-0.0	98326.203125	-30550.642578125	-1298.55712890625
0.18	-0.0	-0.0	-0.0	3.088319063186645	24.40880584716797	-371.4752502441406	-3.029237747192383	-26.551048278808597	-358.9278564453125	-0.0	-0.0	-0.0	-0.0	-0.0	-0.0	98331.7734375	-30536.3359375	-1239.0721435546875
0.1805	-0.0	-0.0	-0.0	3.4111807346343994	24.595508575439453	-371.796875	-3.2563610076904297	-26.698972702026367	-359.4927673339844	-0.0	-0.0	-0.0	-0.0	-0.0	-0.0	98258.7421875	-30593.22265625	-1233.99658203125
0.181	-0.0	-0.0	-0.0	3.334772109985352	24.264694213867188	-371.4612121582031	-3.522680282592773	-26.803258895874023	-359.32769775390625	-0.0	-0.0	-0.0	-0.0	-0.0	-0.0	98437.171875	-30643.939453125	-1174.8218994140625
0.1815	-0.0	-0.0	-0.0	3.832127809524536	24.286073684692383	-370.8544921875	-3.3499460220336914	-26.89617156982422	-359.5257263183594	-0.0	-0.0	-0.0	-0.0	-0.0	-0.0	98234.8515625	-30504.181640625	-1259.3704833984375
0.182	-0.0	-0.0	-0.0	3.87885046005249	23.835302352905277	-372.0184020996094	-3.451223373413086	-26.483917236328125	-359.4931945800781	-0.0	-0.0	-0.0	-0.0	-0.0	-0.0	98649.0390625	-30567.912109375	-1166.0791015625
0.1825	-0.0	-0.0	-0.0	3.546976327896118	23.8316707611084	-371.192138671875	-3.713275671005249	-26.584827423095703	-361.5542907714844	-0.0	-0.0	-0.0	-0.0	-0.0	-0.0	98539.84375	-30659.55859375	-1321.6953125
0.183	-0.0	-0.0	-0.0	3.703798055648804	23.63186836242676	-372.032470703125	-3.5359699726104736	-26.70672607421875	-360.0243835449219	-0.0	-0.0	-0.0	-0.0	-0.0	-0.0	98473.046875	-30608.439453125	-1373.8441162109375
0.1835	-0.0	-0.0	-0.0	3.725242137908936	23.552005767822266	-371.7646484375	-3.5024006366729736	-26.50879669189453	-359.4096069335937	-0.0	-0.0	-0.0	-0.0	-0.0	-0.0	98593.671875	-30592.720703125	-1229.5780029296875
0.184	-0.0	-0.0	-0.0	3.5710222721099854	23.865314483642575	-371.3258666992188	-3.9246668815612793	-26.75834274291992	-360.6736450195313	-0.0	-0.0	-0.0	-0.0	-0.0	-0.0	98781.3515625	-30629.7265625	-1277.988037109375
0.1845	-0.0	-0.0	-0.0	3.9012415409088135	23.874948501586918	-371.5452880859375	-3.572732925415039	-26.93811416625977	-360.5780029296875	-0.0	-0.0	-0.0	-0.0	-0.0	-0.0	98823.171875	-30857.033203125	-1325.8433837890625
0.185	-0.0	-0.0	-0.0	3.6675446033477774	23.63143920898437	-370.658447265625	-3.826598644256592	-26.76147079467773	-359.8431701660156	-0.0	-0.0	-0.0	-0.0	-0.0	-0.0	98632.8671875	-30754.935546875	-1296.3021240234375
0.1855	-0.0	-0.0	-0.0	3.857912302017212	23.441295623779297	-371.4587707519531	-3.548431396484375	-27.0145320892334	-360.8907165527344	-0.0	-0.0	-0.0	-0.0	-0.0	-0.0	98770.6953125	-30775.474609375	-1303.3824462890625
0.186	-0.0	-0.0	-0.0	3.869688272476196	23.79636001586914	-371.8521728515625	-3.792886972427368	-26.949901580810547	-361.8916931152344	-0.0	-0.0	-0.0	-0.0	-0.0	-0.0	99172.78125	-30818.533203125	-1215.2305908203125
0.1865	-0.0	-0.0	-0.0	4.114117622375488	23.45286750793457	-371.49945068359375	-3.891550064086914	-27.1147575378418	-362.07025146484375	-0.0	-0.0	-0.0	-0.0	-0.0	-0.0	99246.7265625	-30888.640625	-1107.224365234375
0.187	-0.0	-0.0	-0.0	4.371315002441406	23.45185089111328	-371.9440307617188	-3.238686800003052	-26.5631160736084	-363.11767578125	-0.0	-0.0	-0.0	-0.0	-0.0	-0.0	99324.21875	-31020.1796875	-1125.5948486328125
0.1875	-0.0	-0.0	-0.0	4.817994594573975	23.1189022064209	-373.4439697265625	-3.3594794273376465	-26.80621719360352	-360.8504943847656	-0.0	-0.0	-0.0	-0.0	-0.0	-0.0	99229.9609375	-31092.34375	-1006.6021728515624
0.188	-0.0	-0.0	-0.0	4.795144081115723	23.50822257995605	-373.0906066894531	-3.337634801864624	-27.03779983520508	-361.6795654296875	-0.0	-0.0	-0.0	-0.0	-0.0	-0.0	99366.8359375	-30967.7421875	-1117.97119140625
0.1885	-0.0	-0.0	-0.0	4.705864906311035	23.107046127319336	-373.5761413574219	-3.348385810852051	-27.28013801574707	-363.031005859375	-0.0	-0.0	-0.0	-0.0	-0.0	-0.0	99488.4453125	-30996.83984375	-1058.7008056640625
0.189	-0.0	-0.0	-0.0	4.79522180557251	23.185176849365234	-375.6957702636719	-3.215679407119751	-27.291400909423828	-361.5471801757813	-0.0	-0.0	-0.0	-0.0	-0.0	-0.0	99521.1953125	-31295.267578125	-888.0017700195312
0.1895	-0.0	-0.0	-0.0	4.705724239349365	22.96176528930664	-373.5776062011719	-2.7833054065704346	-27.07057762145996	-362.8557739257813	-0.0	-0.0	-0.0	-0.0	-0.0	-0.0	99229.296875	-31249.333984375	-1017.4326782226562
0.19	-0.0	-0.0	-0.0	4.962438583374023	23.274694442749023	-373.7964172363281	-2.6058452129364014	-26.88287925720215	-361.32763671875	-0.0	-0.0	-0.0	-0.0	-0.0	-0.0	99325.0234375	-31014.349609375	-887.4901123046875
0.1905	-0.0	-0.0	-0.0	4.716375827789307	22.170936584472656	-373.2645568847656	-2.395191192626953	-26.82804679870605	-361.0657653808594	-0.0	-0.0	-0.0	-0.0	-0.0	-0.0	99354.9296875	-31475.513671875	-750.2686157226562
0.191	-0.0	-0.0	-0.0	5.039734840393066	22.22672843933105	-371.89849853515625	-2.0735199451446533	-26.86054992675781	-361.5025024414063	-0.0	-0.0	-0.0	-0.0	-0.0	-0.0	98977.0390625	-31486.4296875	-716.6211547851562
0.1915	-0.0	-0.0	-0.0	5.219629287719727	21.6027774810791	-373.1378173828125	-1.7293272018432615	-26.982805252075195	-359.57989501953125	-0.0	-0.0	-0.0	-0.0	-0.0	-0.0	98991.0390625	-31518.921875	-582.77978515625
0.192	-0.0	-0.0	-0.0	5.095458507537842	21.457683563232425	-371.06060791015625	-1.16512930393219	-26.430583953857425	-359.9803466796875	-0.0	-0.0	-0.0	-0.0	-0.0	-0.0	98804.1171875	-31429.412109375	-445.4076843261719
0.1925	-0.0	-0.0	-0.0	5.250921726226807	21.515735626220703	-370.9293823242188	-1.0540366172790527	-26.254016876220703	-357.79156494140625	-0.0	-0.0	-0.0	-0.0	-0.0	-0.0	98329.5234375	-31497.794921875	-352.3290405273437
0.193	-0.0	-0.0	-0.0	5.599809169769287	20.800498962402344	-369.3355102539063	-0.788020133972168	-26.37529945373535	-356.8329467773437	-0.0	-0.0	-0.0	-0.0	-0.0	-0.0	97850.0625	-31329.4296875	-189.3487701416016
0.1935	-0.0	-0.0	-0.0	5.808831214904785	21.38115692138672	-368.497802734375	-0.3548431396484375	-26.143218994140625	-355.7449645996094	-0.0	-0.0	-0.0	-0.0	-0.0	-0.0	97753.578125	-31166.3671875	-114.51292419433594
0.194	-0.0	-0.0	-0.0	6.000153064727783	20.94564437866211	-367.6603393554688	0.3422447741031647	-26.143218994140625	-355.1768493652344	-0.0	-0.0	-0.0	-0.0	-0.0	-0.0	97579.6484375	-31099.470703125	-103.00700378417967
